<?xml version="1.0" standalone="no"?>
<!DOCTYPE svg PUBLIC "-//W3C//DTD SVG 20010904//EN"
 "http://www.w3.org/TR/2001/REC-SVG-20010904/DTD/svg10.dtd">
<svg version="1.0" xmlns="http://www.w3.org/2000/svg"
 width="640.000000pt" height="640.000000pt" viewBox="0 0 640.000000 640.000000"
 preserveAspectRatio="xMidYMid meet">
<metadata>
Created by potrace 1.14, written by Peter Selinger 2001-2017
</metadata>
<g transform="translate(0.000000,640.000000) scale(0.100000,-0.100000)"
fill="#000000" stroke="none">
<path d="M1889 5755 c-2 -2 -31 -6 -64 -9 -60 -5 -119 -13 -165 -22 -14 -3
-40 -7 -59 -10 -19 -2 -37 -6 -41 -9 -4 -2 -20 -7 -37 -9 -122 -22 -383 -119
-532 -198 -87 -47 -183 -102 -206 -120 -5 -5 -38 -28 -72 -52 -94 -68 -99 -73
-223 -196 -63 -64 -133 -141 -154 -173 -22 -31 -43 -57 -46 -57 -4 0 -13 -13
-20 -30 -7 -16 -16 -30 -21 -30 -5 0 -9 -4 -9 -10 0 -5 -13 -32 -30 -58 -71
-116 -163 -365 -186 -502 -4 -25 -9 -56 -12 -70 -2 -14 -5 -90 -7 -170 -5
-213 31 -417 100 -583 8 -20 16 -40 16 -44 2 -14 111 -218 125 -234 8 -8 14
-20 14 -26 0 -6 3 -13 8 -15 4 -1 25 -28 47 -58 22 -30 48 -64 57 -74 25 -27
23 -41 -17 -120 -52 -99 -135 -205 -236 -299 -49 -45 -96 -96 -104 -113 -31
-66 -10 -144 52 -191 35 -27 41 -28 137 -27 97 1 166 7 217 18 13 3 35 8 49
10 40 8 171 43 220 59 39 13 85 30 181 68 14 5 56 25 93 43 l68 34 47 -20 c25
-11 69 -30 96 -43 48 -21 170 -64 190 -66 6 -1 21 -6 35 -11 35 -14 211 -55
267 -63 13 -2 42 -6 65 -10 24 -4 54 -8 68 -10 75 -12 349 -19 359 -10 2 2 12
0 22 -6 11 -5 19 -6 19 -1 0 4 15 8 33 8 39 1 153 12 187 18 14 3 43 7 65 10
22 3 72 12 110 21 39 9 84 18 100 22 17 3 36 10 43 16 6 5 12 7 12 3 0 -3 16
0 35 8 20 9 38 15 40 15 15 1 61 15 70 21 6 4 28 13 50 20 84 27 371 175 430
221 5 5 47 36 91 68 104 76 283 252 360 356 125 168 214 338 267 515 23 76 31
112 52 225 5 25 18 258 17 290 -1 18 -12 98 -23 170 -42 267 -170 542 -359
770 -56 68 -231 234 -305 290 -182 138 -407 256 -629 330 -72 25 -140 46 -151
47 -11 2 -26 7 -32 11 -7 5 -13 6 -13 4 0 -3 -28 2 -62 10 -35 7 -74 15 -88
17 -61 8 -127 19 -145 23 -24 6 -461 14 -466 8z"/>
<path d="M4479 4152 c-6 -33 -2 -162 4 -162 5 0 6 -4 3 -9 -3 -5 -8 -55 -12
-112 -3 -57 -7 -106 -9 -109 -2 -3 -7 -33 -10 -65 -4 -33 -11 -68 -16 -77 -6
-10 -8 -18 -5 -18 12 0 -75 -277 -100 -317 -8 -13 -12 -23 -10 -23 7 0 -103
-212 -120 -231 -8 -8 -14 -18 -14 -22 0 -27 -206 -287 -291 -367 -69 -65 -184
-167 -197 -174 -10 -5 -44 -31 -77 -56 -169 -132 -453 -275 -705 -357 -122
-40 -318 -87 -405 -99 -16 -2 -48 -6 -70 -10 -22 -4 -57 -8 -78 -9 -21 -1 -40
-5 -43 -7 -13 -13 69 -204 134 -313 68 -113 176 -250 271 -345 80 -80 128
-121 266 -228 6 -4 51 -33 100 -63 109 -67 245 -134 410 -200 32 -12 120 -39
146 -44 13 -3 35 -9 49 -14 24 -9 88 -24 155 -36 118 -22 148 -26 210 -33 146
-14 484 -7 600 13 17 3 46 7 65 9 19 3 35 5 35 6 0 1 11 3 25 6 25 4 155 33
175 39 6 1 15 3 20 5 6 1 26 8 45 16 19 8 36 15 38 14 6 -1 58 13 67 20 6 4
37 16 70 28 33 12 83 33 109 46 27 14 52 24 55 22 3 -1 35 -16 71 -33 128 -61
273 -116 339 -129 13 -3 31 -9 40 -13 9 -5 19 -9 24 -10 4 -1 8 -1 10 -2 1 0
11 -2 22 -4 11 -2 32 -6 48 -9 106 -23 165 -29 274 -30 98 -1 102 0 138 29 49
40 69 91 60 153 -7 49 -12 55 -146 178 -82 76 -180 211 -222 306 l-24 54 40
50 c82 101 230 350 241 407 2 6 9 26 15 42 25 59 51 148 66 223 8 43 18 91 21
107 15 70 11 331 -6 435 -19 114 -51 237 -81 306 -10 24 -18 46 -19 49 -1 28
-148 294 -180 325 -3 3 -25 32 -50 65 -88 119 -289 304 -445 410 -141 97 -448
241 -575 270 -24 6 -134 37 -150 42 -8 3 -26 7 -40 9 -14 1 -36 5 -50 9 -14 3
-43 8 -65 11 -22 2 -46 7 -53 9 -7 3 -45 7 -84 11 -39 3 -79 7 -90 9 -10 2
-19 1 -19 -3z"/>
</g>
</svg>
